# xmcd CD database file
#
# Track frame offsets:
#	150
#	24450
#	43875
#	79687
#	109125
#	123750
#	144250
#	159300
#	191025
#	230137
#	270900
#
# Disc length: 4339 seconds
#
# Revision: 0
# Processed by: cddbd v1.5.1PL0 Copyright (c) Steve Scherf et al.
# Submitted via: CDex 1.51
#
DISCID=8a10f10b
DTITLE=Variuos Artists - Unplugged jazz
DYEAR=1900
DGENRE=Jazz
TTITLE0=Bobby Tommins - Dat dere
TTITLE1=Stan Getz and Zoot sims - Zootcase
TTITLE2=Chet Baker - Polka dots and moonbeams
TTITLE3=The Oscar Peterson trio - Easy does it
TTITLE4=Mongo Santamaria - Mongo's groove
TTITLE5=Joe Turner with Pee Wee, Crayton and Sonny Stitt - Stormy monday
TTITLE6=Count Basie big band - One o'clock jump
TTITLE7=Benny Carter 4 - Body and soul
TTITLE8=Eric Dolphy with Booker Little - Ode to Charlie Parker
TTITLE9=Dizzy Gillespie, Roy Eldridge and Clark Terry - Indiana (back home to Indiana)
TTITLE10=Thelonious Monk quartet plus two - 'Round midnight'
EXTD=
EXTT0=
EXTT1=
EXTT2=
EXTT3=
EXTT4=
EXTT5=
EXTT6=
EXTT7=
EXTT8=
EXTT9=
EXTT10=
PLAYORDER=
